<mxfile host="app.diagrams.net" modified="2020-12-06T12:25:03.601Z" agent="5.0 (Windows NT 10.0; Win64; x64) AppleWebKit/537.36 (KHTML, like Gecko) Chrome/86.0.4240.198 Safari/537.36" etag="lK6cybvZgPipEF8rQ7j3" version="13.10.9" type="github">
  <diagram id="7tLhcnFR_-YWFYK9i4HX" name="ClassDiagram">
    <mxGraphModel dx="1422" dy="762" grid="1" gridSize="10" guides="1" tooltips="1" connect="1" arrows="1" fold="1" page="1" pageScale="1" pageWidth="827" pageHeight="1169" background="#67AB9F" math="0" shadow="0">
      <root>
        <mxCell id="2jnJ9HJd9OfUZj2SuI70-0" />
        <mxCell id="2jnJ9HJd9OfUZj2SuI70-1" parent="2jnJ9HJd9OfUZj2SuI70-0" />
        <mxCell id="pqq-e4tX1zYswBb4EWAp-2" value="Doctors" style="swimlane;fontStyle=1;align=center;verticalAlign=top;childLayout=stackLayout;horizontal=1;startSize=26;horizontalStack=0;resizeParent=1;resizeParentMax=0;resizeLast=0;collapsible=1;marginBottom=0;fillColor=#dae8fc;strokeColor=#6c8ebf;" parent="2jnJ9HJd9OfUZj2SuI70-1" vertex="1">
          <mxGeometry x="60" y="130" width="170" height="190" as="geometry" />
        </mxCell>
        <mxCell id="pqq-e4tX1zYswBb4EWAp-3" value="+ first_name: String" style="text;strokeColor=#d79b00;fillColor=#ffe6cc;align=left;verticalAlign=top;spacingLeft=4;spacingRight=4;overflow=hidden;rotatable=0;points=[[0,0.5],[1,0.5]];portConstraint=eastwest;" parent="pqq-e4tX1zYswBb4EWAp-2" vertex="1">
          <mxGeometry y="26" width="170" height="26" as="geometry" />
        </mxCell>
        <mxCell id="pqq-e4tX1zYswBb4EWAp-10" value="+ last_name: String" style="text;strokeColor=#d79b00;fillColor=#ffe6cc;align=left;verticalAlign=top;spacingLeft=4;spacingRight=4;overflow=hidden;rotatable=0;points=[[0,0.5],[1,0.5]];portConstraint=eastwest;" parent="pqq-e4tX1zYswBb4EWAp-2" vertex="1">
          <mxGeometry y="52" width="170" height="26" as="geometry" />
        </mxCell>
        <mxCell id="pqq-e4tX1zYswBb4EWAp-46" value="+ age: int" style="text;strokeColor=#d79b00;fillColor=#ffe6cc;align=left;verticalAlign=top;spacingLeft=4;spacingRight=4;overflow=hidden;rotatable=0;points=[[0,0.5],[1,0.5]];portConstraint=eastwest;" parent="pqq-e4tX1zYswBb4EWAp-2" vertex="1">
          <mxGeometry y="78" width="170" height="26" as="geometry" />
        </mxCell>
        <mxCell id="geAe2I1A-DyMrMw-oqyO-0" value="+ degree: String" style="text;strokeColor=#d79b00;fillColor=#ffe6cc;align=left;verticalAlign=top;spacingLeft=4;spacingRight=4;overflow=hidden;rotatable=0;points=[[0,0.5],[1,0.5]];portConstraint=eastwest;" parent="pqq-e4tX1zYswBb4EWAp-2" vertex="1">
          <mxGeometry y="104" width="170" height="26" as="geometry" />
        </mxCell>
        <mxCell id="pqq-e4tX1zYswBb4EWAp-54" value="+ salary: int" style="text;strokeColor=#d79b00;fillColor=#ffe6cc;align=left;verticalAlign=top;spacingLeft=4;spacingRight=4;overflow=hidden;rotatable=0;points=[[0,0.5],[1,0.5]];portConstraint=eastwest;" parent="pqq-e4tX1zYswBb4EWAp-2" vertex="1">
          <mxGeometry y="130" width="170" height="26" as="geometry" />
        </mxCell>
        <mxCell id="pqq-e4tX1zYswBb4EWAp-4" value="" style="line;strokeWidth=1;fillColor=none;align=left;verticalAlign=middle;spacingTop=-1;spacingLeft=3;spacingRight=3;rotatable=0;labelPosition=right;points=[];portConstraint=eastwest;" parent="pqq-e4tX1zYswBb4EWAp-2" vertex="1">
          <mxGeometry y="156" width="170" height="8" as="geometry" />
        </mxCell>
        <mxCell id="pqq-e4tX1zYswBb4EWAp-5" value="+ consults_pets()" style="text;strokeColor=#9673a6;fillColor=#e1d5e7;align=left;verticalAlign=top;spacingLeft=4;spacingRight=4;overflow=hidden;rotatable=0;points=[[0,0.5],[1,0.5]];portConstraint=eastwest;" parent="pqq-e4tX1zYswBb4EWAp-2" vertex="1">
          <mxGeometry y="164" width="170" height="26" as="geometry" />
        </mxCell>
        <mxCell id="pqq-e4tX1zYswBb4EWAp-21" value="CreditCardsOfClients" style="swimlane;fontStyle=1;align=center;verticalAlign=top;childLayout=stackLayout;horizontal=1;startSize=26;horizontalStack=0;resizeParent=1;resizeParentMax=0;resizeLast=0;collapsible=1;marginBottom=0;fillColor=#d5e8d4;strokeColor=#82b366;" parent="2jnJ9HJd9OfUZj2SuI70-1" vertex="1">
          <mxGeometry x="60" y="530" width="170" height="190" as="geometry" />
        </mxCell>
        <mxCell id="pqq-e4tX1zYswBb4EWAp-22" value="+ owner" style="text;strokeColor=#d6b656;fillColor=#fff2cc;align=left;verticalAlign=top;spacingLeft=4;spacingRight=4;overflow=hidden;rotatable=0;points=[[0,0.5],[1,0.5]];portConstraint=eastwest;" parent="pqq-e4tX1zYswBb4EWAp-21" vertex="1">
          <mxGeometry y="26" width="170" height="26" as="geometry" />
        </mxCell>
        <mxCell id="pqq-e4tX1zYswBb4EWAp-23" value="+ account" style="text;strokeColor=#d6b656;fillColor=#fff2cc;align=left;verticalAlign=top;spacingLeft=4;spacingRight=4;overflow=hidden;rotatable=0;points=[[0,0.5],[1,0.5]];portConstraint=eastwest;" parent="pqq-e4tX1zYswBb4EWAp-21" vertex="1">
          <mxGeometry y="52" width="170" height="26" as="geometry" />
        </mxCell>
        <mxCell id="pqq-e4tX1zYswBb4EWAp-49" value="+ bic" style="text;strokeColor=#d6b656;fillColor=#fff2cc;align=left;verticalAlign=top;spacingLeft=4;spacingRight=4;overflow=hidden;rotatable=0;points=[[0,0.5],[1,0.5]];portConstraint=eastwest;" parent="pqq-e4tX1zYswBb4EWAp-21" vertex="1">
          <mxGeometry y="78" width="170" height="26" as="geometry" />
        </mxCell>
        <mxCell id="pqq-e4tX1zYswBb4EWAp-24" value="" style="line;strokeWidth=1;fillColor=none;align=left;verticalAlign=middle;spacingTop=-1;spacingLeft=3;spacingRight=3;rotatable=0;labelPosition=right;points=[];portConstraint=eastwest;" parent="pqq-e4tX1zYswBb4EWAp-21" vertex="1">
          <mxGeometry y="104" width="170" height="8" as="geometry" />
        </mxCell>
        <mxCell id="pqq-e4tX1zYswBb4EWAp-25" value="+ debit()" style="text;strokeColor=#9673a6;fillColor=#e1d5e7;align=left;verticalAlign=top;spacingLeft=4;spacingRight=4;overflow=hidden;rotatable=0;points=[[0,0.5],[1,0.5]];portConstraint=eastwest;" parent="pqq-e4tX1zYswBb4EWAp-21" vertex="1">
          <mxGeometry y="112" width="170" height="26" as="geometry" />
        </mxCell>
        <mxCell id="pqq-e4tX1zYswBb4EWAp-51" value="+ credit()" style="text;strokeColor=#9673a6;fillColor=#e1d5e7;align=left;verticalAlign=top;spacingLeft=4;spacingRight=4;overflow=hidden;rotatable=0;points=[[0,0.5],[1,0.5]];portConstraint=eastwest;" parent="pqq-e4tX1zYswBb4EWAp-21" vertex="1">
          <mxGeometry y="138" width="170" height="26" as="geometry" />
        </mxCell>
        <mxCell id="pqq-e4tX1zYswBb4EWAp-52" value="+ withdraw()" style="text;strokeColor=#9673a6;fillColor=#e1d5e7;align=left;verticalAlign=top;spacingLeft=4;spacingRight=4;overflow=hidden;rotatable=0;points=[[0,0.5],[1,0.5]];portConstraint=eastwest;" parent="pqq-e4tX1zYswBb4EWAp-21" vertex="1">
          <mxGeometry y="164" width="170" height="26" as="geometry" />
        </mxCell>
        <mxCell id="pqq-e4tX1zYswBb4EWAp-26" value="Pets" style="swimlane;fontStyle=1;align=center;verticalAlign=top;childLayout=stackLayout;horizontal=1;startSize=26;horizontalStack=0;resizeParent=1;resizeParentMax=0;resizeLast=0;collapsible=1;marginBottom=0;fillColor=#d5e8d4;strokeColor=#82b366;" parent="2jnJ9HJd9OfUZj2SuI70-1" vertex="1">
          <mxGeometry x="640" y="530" width="170" height="164" as="geometry" />
        </mxCell>
        <mxCell id="pqq-e4tX1zYswBb4EWAp-27" value="+ owner: String" style="text;strokeColor=#d79b00;fillColor=#ffe6cc;align=left;verticalAlign=top;spacingLeft=4;spacingRight=4;overflow=hidden;rotatable=0;points=[[0,0.5],[1,0.5]];portConstraint=eastwest;" parent="pqq-e4tX1zYswBb4EWAp-26" vertex="1">
          <mxGeometry y="26" width="170" height="26" as="geometry" />
        </mxCell>
        <mxCell id="pqq-e4tX1zYswBb4EWAp-28" value="+ pet_type: String" style="text;strokeColor=#d79b00;fillColor=#ffe6cc;align=left;verticalAlign=top;spacingLeft=4;spacingRight=4;overflow=hidden;rotatable=0;points=[[0,0.5],[1,0.5]];portConstraint=eastwest;" parent="pqq-e4tX1zYswBb4EWAp-26" vertex="1">
          <mxGeometry y="52" width="170" height="26" as="geometry" />
        </mxCell>
        <mxCell id="pqq-e4tX1zYswBb4EWAp-47" value="+ pet_breed: String" style="text;strokeColor=#d79b00;fillColor=#ffe6cc;align=left;verticalAlign=top;spacingLeft=4;spacingRight=4;overflow=hidden;rotatable=0;points=[[0,0.5],[1,0.5]];portConstraint=eastwest;" parent="pqq-e4tX1zYswBb4EWAp-26" vertex="1">
          <mxGeometry y="78" width="170" height="26" as="geometry" />
        </mxCell>
        <mxCell id="pqq-e4tX1zYswBb4EWAp-48" value="+ pet_age: int" style="text;strokeColor=#d79b00;fillColor=#ffe6cc;align=left;verticalAlign=top;spacingLeft=4;spacingRight=4;overflow=hidden;rotatable=0;points=[[0,0.5],[1,0.5]];portConstraint=eastwest;" parent="pqq-e4tX1zYswBb4EWAp-26" vertex="1">
          <mxGeometry y="104" width="170" height="26" as="geometry" />
        </mxCell>
        <mxCell id="pqq-e4tX1zYswBb4EWAp-29" value="" style="line;strokeWidth=1;fillColor=none;align=left;verticalAlign=middle;spacingTop=-1;spacingLeft=3;spacingRight=3;rotatable=0;labelPosition=right;points=[];portConstraint=eastwest;" parent="pqq-e4tX1zYswBb4EWAp-26" vertex="1">
          <mxGeometry y="130" width="170" height="8" as="geometry" />
        </mxCell>
        <mxCell id="pqq-e4tX1zYswBb4EWAp-30" value="+ needs_treatment()" style="text;strokeColor=#9673a6;fillColor=#e1d5e7;align=left;verticalAlign=top;spacingLeft=4;spacingRight=4;overflow=hidden;rotatable=0;points=[[0,0.5],[1,0.5]];portConstraint=eastwest;" parent="pqq-e4tX1zYswBb4EWAp-26" vertex="1">
          <mxGeometry y="138" width="170" height="26" as="geometry" />
        </mxCell>
        <mxCell id="pqq-e4tX1zYswBb4EWAp-31" value="VetClinic" style="swimlane;fontStyle=1;align=center;verticalAlign=top;childLayout=stackLayout;horizontal=1;startSize=26;horizontalStack=0;resizeParent=1;resizeParentMax=0;resizeLast=0;collapsible=1;marginBottom=0;fillColor=#1ba1e2;strokeColor=#006EAF;fontColor=#ffffff;" parent="2jnJ9HJd9OfUZj2SuI70-1" vertex="1">
          <mxGeometry x="340" y="90" width="170" height="242" as="geometry" />
        </mxCell>
        <mxCell id="pqq-e4tX1zYswBb4EWAp-70" value="+ name: String" style="text;strokeColor=#d79b00;fillColor=#ffe6cc;align=left;verticalAlign=top;spacingLeft=4;spacingRight=4;overflow=hidden;rotatable=0;points=[[0,0.5],[1,0.5]];portConstraint=eastwest;" parent="pqq-e4tX1zYswBb4EWAp-31" vertex="1">
          <mxGeometry y="26" width="170" height="26" as="geometry" />
        </mxCell>
        <mxCell id="pqq-e4tX1zYswBb4EWAp-74" value="+ adress: String" style="text;strokeColor=#d79b00;fillColor=#ffe6cc;align=left;verticalAlign=top;spacingLeft=4;spacingRight=4;overflow=hidden;rotatable=0;points=[[0,0.5],[1,0.5]];portConstraint=eastwest;" parent="pqq-e4tX1zYswBb4EWAp-31" vertex="1">
          <mxGeometry y="52" width="170" height="26" as="geometry" />
        </mxCell>
        <mxCell id="pqq-e4tX1zYswBb4EWAp-32" value="+ email: String" style="text;strokeColor=#d79b00;fillColor=#ffe6cc;align=left;verticalAlign=top;spacingLeft=4;spacingRight=4;overflow=hidden;rotatable=0;points=[[0,0.5],[1,0.5]];portConstraint=eastwest;" parent="pqq-e4tX1zYswBb4EWAp-31" vertex="1">
          <mxGeometry y="78" width="170" height="26" as="geometry" />
        </mxCell>
        <mxCell id="pqq-e4tX1zYswBb4EWAp-33" value="+ phone_number: int" style="text;strokeColor=#d79b00;fillColor=#ffe6cc;align=left;verticalAlign=top;spacingLeft=4;spacingRight=4;overflow=hidden;rotatable=0;points=[[0,0.5],[1,0.5]];portConstraint=eastwest;" parent="pqq-e4tX1zYswBb4EWAp-31" vertex="1">
          <mxGeometry y="104" width="170" height="26" as="geometry" />
        </mxCell>
        <mxCell id="pqq-e4tX1zYswBb4EWAp-56" value="+ employees: String" style="text;strokeColor=#d79b00;fillColor=#ffe6cc;align=left;verticalAlign=top;spacingLeft=4;spacingRight=4;overflow=hidden;rotatable=0;points=[[0,0.5],[1,0.5]];portConstraint=eastwest;" parent="pqq-e4tX1zYswBb4EWAp-31" vertex="1">
          <mxGeometry y="130" width="170" height="26" as="geometry" />
        </mxCell>
        <mxCell id="pqq-e4tX1zYswBb4EWAp-34" value="" style="line;strokeWidth=1;fillColor=none;align=left;verticalAlign=middle;spacingTop=-1;spacingLeft=3;spacingRight=3;rotatable=0;labelPosition=right;points=[];portConstraint=eastwest;" parent="pqq-e4tX1zYswBb4EWAp-31" vertex="1">
          <mxGeometry y="156" width="170" height="8" as="geometry" />
        </mxCell>
        <mxCell id="pqq-e4tX1zYswBb4EWAp-35" value="+ opens_at()" style="text;strokeColor=#9673a6;fillColor=#e1d5e7;align=left;verticalAlign=top;spacingLeft=4;spacingRight=4;overflow=hidden;rotatable=0;points=[[0,0.5],[1,0.5]];portConstraint=eastwest;" parent="pqq-e4tX1zYswBb4EWAp-31" vertex="1">
          <mxGeometry y="164" width="170" height="26" as="geometry" />
        </mxCell>
        <mxCell id="pqq-e4tX1zYswBb4EWAp-77" value="+ closes_at()" style="text;strokeColor=#9673a6;fillColor=#e1d5e7;align=left;verticalAlign=top;spacingLeft=4;spacingRight=4;overflow=hidden;rotatable=0;points=[[0,0.5],[1,0.5]];portConstraint=eastwest;" parent="pqq-e4tX1zYswBb4EWAp-31" vertex="1">
          <mxGeometry y="190" width="170" height="26" as="geometry" />
        </mxCell>
        <mxCell id="pqq-e4tX1zYswBb4EWAp-78" value="+ appointments()" style="text;strokeColor=#9673a6;fillColor=#e1d5e7;align=left;verticalAlign=top;spacingLeft=4;spacingRight=4;overflow=hidden;rotatable=0;points=[[0,0.5],[1,0.5]];portConstraint=eastwest;" parent="pqq-e4tX1zYswBb4EWAp-31" vertex="1">
          <mxGeometry y="216" width="170" height="26" as="geometry" />
        </mxCell>
        <mxCell id="pqq-e4tX1zYswBb4EWAp-36" value="Assistants" style="swimlane;fontStyle=1;align=center;verticalAlign=top;childLayout=stackLayout;horizontal=1;startSize=26;horizontalStack=0;resizeParent=1;resizeParentMax=0;resizeLast=0;collapsible=1;marginBottom=0;fillColor=#dae8fc;strokeColor=#6c8ebf;" parent="2jnJ9HJd9OfUZj2SuI70-1" vertex="1">
          <mxGeometry x="620" y="140" width="170" height="216" as="geometry" />
        </mxCell>
        <mxCell id="pqq-e4tX1zYswBb4EWAp-37" value="+ first_name: String" style="text;strokeColor=#d79b00;fillColor=#ffe6cc;align=left;verticalAlign=top;spacingLeft=4;spacingRight=4;overflow=hidden;rotatable=0;points=[[0,0.5],[1,0.5]];portConstraint=eastwest;" parent="pqq-e4tX1zYswBb4EWAp-36" vertex="1">
          <mxGeometry y="26" width="170" height="26" as="geometry" />
        </mxCell>
        <mxCell id="pqq-e4tX1zYswBb4EWAp-53" value="+ last_name: String" style="text;strokeColor=#d79b00;fillColor=#ffe6cc;align=left;verticalAlign=top;spacingLeft=4;spacingRight=4;overflow=hidden;rotatable=0;points=[[0,0.5],[1,0.5]];portConstraint=eastwest;" parent="pqq-e4tX1zYswBb4EWAp-36" vertex="1">
          <mxGeometry y="52" width="170" height="26" as="geometry" />
        </mxCell>
        <mxCell id="pqq-e4tX1zYswBb4EWAp-38" value="+ age: int" style="text;strokeColor=#d79b00;fillColor=#ffe6cc;align=left;verticalAlign=top;spacingLeft=4;spacingRight=4;overflow=hidden;rotatable=0;points=[[0,0.5],[1,0.5]];portConstraint=eastwest;" parent="pqq-e4tX1zYswBb4EWAp-36" vertex="1">
          <mxGeometry y="78" width="170" height="26" as="geometry" />
        </mxCell>
        <mxCell id="pqq-e4tX1zYswBb4EWAp-55" value="+ degree: String" style="text;strokeColor=#d79b00;fillColor=#ffe6cc;align=left;verticalAlign=top;spacingLeft=4;spacingRight=4;overflow=hidden;rotatable=0;points=[[0,0.5],[1,0.5]];portConstraint=eastwest;" parent="pqq-e4tX1zYswBb4EWAp-36" vertex="1">
          <mxGeometry y="104" width="170" height="26" as="geometry" />
        </mxCell>
        <mxCell id="geAe2I1A-DyMrMw-oqyO-1" value="+ salary: int" style="text;strokeColor=#d79b00;fillColor=#ffe6cc;align=left;verticalAlign=top;spacingLeft=4;spacingRight=4;overflow=hidden;rotatable=0;points=[[0,0.5],[1,0.5]];portConstraint=eastwest;" parent="pqq-e4tX1zYswBb4EWAp-36" vertex="1">
          <mxGeometry y="130" width="170" height="26" as="geometry" />
        </mxCell>
        <mxCell id="pqq-e4tX1zYswBb4EWAp-39" value="" style="line;strokeWidth=1;fillColor=none;align=left;verticalAlign=middle;spacingTop=-1;spacingLeft=3;spacingRight=3;rotatable=0;labelPosition=right;points=[];portConstraint=eastwest;" parent="pqq-e4tX1zYswBb4EWAp-36" vertex="1">
          <mxGeometry y="156" width="170" height="8" as="geometry" />
        </mxCell>
        <mxCell id="pqq-e4tX1zYswBb4EWAp-40" value="+ help_doctors()" style="text;strokeColor=#9673a6;fillColor=#e1d5e7;align=left;verticalAlign=top;spacingLeft=4;spacingRight=4;overflow=hidden;rotatable=0;points=[[0,0.5],[1,0.5]];portConstraint=eastwest;" parent="pqq-e4tX1zYswBb4EWAp-36" vertex="1">
          <mxGeometry y="164" width="170" height="26" as="geometry" />
        </mxCell>
        <mxCell id="pqq-e4tX1zYswBb4EWAp-81" value="+ schedule_appointments()" style="text;strokeColor=#9673a6;fillColor=#e1d5e7;align=left;verticalAlign=top;spacingLeft=4;spacingRight=4;overflow=hidden;rotatable=0;points=[[0,0.5],[1,0.5]];portConstraint=eastwest;" parent="pqq-e4tX1zYswBb4EWAp-36" vertex="1">
          <mxGeometry y="190" width="170" height="26" as="geometry" />
        </mxCell>
        <mxCell id="pqq-e4tX1zYswBb4EWAp-41" value="Clients" style="swimlane;fontStyle=1;align=center;verticalAlign=top;childLayout=stackLayout;horizontal=1;startSize=26;horizontalStack=0;resizeParent=1;resizeParentMax=0;resizeLast=0;collapsible=1;marginBottom=0;fillColor=#60a917;strokeColor=#2D7600;fontColor=#ffffff;" parent="2jnJ9HJd9OfUZj2SuI70-1" vertex="1">
          <mxGeometry x="340" y="510" width="170" height="138" as="geometry" />
        </mxCell>
        <mxCell id="pqq-e4tX1zYswBb4EWAp-42" value="+ first_name: String" style="text;strokeColor=#d79b00;fillColor=#ffe6cc;align=left;verticalAlign=top;spacingLeft=4;spacingRight=4;overflow=hidden;rotatable=0;points=[[0,0.5],[1,0.5]];portConstraint=eastwest;" parent="pqq-e4tX1zYswBb4EWAp-41" vertex="1">
          <mxGeometry y="26" width="170" height="26" as="geometry" />
        </mxCell>
        <mxCell id="pqq-e4tX1zYswBb4EWAp-43" value="+ last_name: String" style="text;strokeColor=#d79b00;fillColor=#ffe6cc;align=left;verticalAlign=top;spacingLeft=4;spacingRight=4;overflow=hidden;rotatable=0;points=[[0,0.5],[1,0.5]];portConstraint=eastwest;" parent="pqq-e4tX1zYswBb4EWAp-41" vertex="1">
          <mxGeometry y="52" width="170" height="26" as="geometry" />
        </mxCell>
        <mxCell id="pqq-e4tX1zYswBb4EWAp-50" value="+ cnp: int" style="text;strokeColor=#d79b00;fillColor=#ffe6cc;align=left;verticalAlign=top;spacingLeft=4;spacingRight=4;overflow=hidden;rotatable=0;points=[[0,0.5],[1,0.5]];portConstraint=eastwest;" parent="pqq-e4tX1zYswBb4EWAp-41" vertex="1">
          <mxGeometry y="78" width="170" height="26" as="geometry" />
        </mxCell>
        <mxCell id="pqq-e4tX1zYswBb4EWAp-44" value="" style="line;strokeWidth=1;fillColor=none;align=left;verticalAlign=middle;spacingTop=-1;spacingLeft=3;spacingRight=3;rotatable=0;labelPosition=right;points=[];portConstraint=eastwest;" parent="pqq-e4tX1zYswBb4EWAp-41" vertex="1">
          <mxGeometry y="104" width="170" height="8" as="geometry" />
        </mxCell>
        <mxCell id="pqq-e4tX1zYswBb4EWAp-45" value="+ owns()" style="text;strokeColor=#9673a6;fillColor=#e1d5e7;align=left;verticalAlign=top;spacingLeft=4;spacingRight=4;overflow=hidden;rotatable=0;points=[[0,0.5],[1,0.5]];portConstraint=eastwest;" parent="pqq-e4tX1zYswBb4EWAp-41" vertex="1">
          <mxGeometry y="112" width="170" height="26" as="geometry" />
        </mxCell>
        <mxCell id="pqq-e4tX1zYswBb4EWAp-84" value="1" style="text;html=1;resizable=0;autosize=1;align=center;verticalAlign=middle;points=[];fillColor=none;strokeColor=none;rounded=0;fontSize=14;" parent="2jnJ9HJd9OfUZj2SuI70-1" vertex="1">
          <mxGeometry x="415" y="350" width="20" height="20" as="geometry" />
        </mxCell>
        <mxCell id="pqq-e4tX1zYswBb4EWAp-85" value="*" style="text;html=1;resizable=0;autosize=1;align=center;verticalAlign=middle;points=[];fillColor=none;strokeColor=none;rounded=0;fontSize=16;strokeWidth=3;" parent="2jnJ9HJd9OfUZj2SuI70-1" vertex="1">
          <mxGeometry x="415" y="490" width="20" height="20" as="geometry" />
        </mxCell>
        <mxCell id="pqq-e4tX1zYswBb4EWAp-87" value="1..*" style="text;html=1;resizable=0;autosize=1;align=center;verticalAlign=middle;points=[];fillColor=none;strokeColor=none;rounded=0;fontSize=16;" parent="2jnJ9HJd9OfUZj2SuI70-1" vertex="1">
          <mxGeometry x="600" y="550" width="40" height="20" as="geometry" />
        </mxCell>
        <mxCell id="pqq-e4tX1zYswBb4EWAp-89" value="1..*" style="text;html=1;resizable=0;autosize=1;align=center;verticalAlign=middle;points=[];fillColor=none;strokeColor=none;rounded=0;fontSize=16;" parent="2jnJ9HJd9OfUZj2SuI70-1" vertex="1">
          <mxGeometry x="230" y="550" width="40" height="20" as="geometry" />
        </mxCell>
        <mxCell id="pqq-e4tX1zYswBb4EWAp-90" value="1..*" style="text;html=1;resizable=0;autosize=1;align=center;verticalAlign=middle;points=[];fillColor=none;strokeColor=none;rounded=0;fontSize=16;" parent="2jnJ9HJd9OfUZj2SuI70-1" vertex="1">
          <mxGeometry x="230" y="150" width="40" height="20" as="geometry" />
        </mxCell>
        <mxCell id="pqq-e4tX1zYswBb4EWAp-91" value="1..*" style="text;html=1;resizable=0;autosize=1;align=center;verticalAlign=middle;points=[];fillColor=none;strokeColor=none;rounded=0;fontSize=16;" parent="2jnJ9HJd9OfUZj2SuI70-1" vertex="1">
          <mxGeometry x="580" y="150" width="40" height="20" as="geometry" />
        </mxCell>
        <mxCell id="geAe2I1A-DyMrMw-oqyO-3" value="" style="endArrow=open;endFill=1;endSize=12;html=1;strokeWidth=1;fontSize=16;align=left;exitX=-0.006;exitY=0.123;exitDx=0;exitDy=0;exitPerimeter=0;entryX=1.012;entryY=0.063;entryDx=0;entryDy=0;entryPerimeter=0;" parent="2jnJ9HJd9OfUZj2SuI70-1" source="pqq-e4tX1zYswBb4EWAp-41" target="pqq-e4tX1zYswBb4EWAp-21" edge="1">
          <mxGeometry width="160" relative="1" as="geometry">
            <mxPoint x="160" y="450" as="sourcePoint" />
            <mxPoint x="320" y="450" as="targetPoint" />
          </mxGeometry>
        </mxCell>
        <mxCell id="geAe2I1A-DyMrMw-oqyO-4" value="" style="endArrow=open;endFill=1;endSize=12;html=1;strokeWidth=1;fontSize=16;align=left;entryX=-0.018;entryY=0.11;entryDx=0;entryDy=0;entryPerimeter=0;exitX=1.006;exitY=0.094;exitDx=0;exitDy=0;exitPerimeter=0;" parent="2jnJ9HJd9OfUZj2SuI70-1" source="pqq-e4tX1zYswBb4EWAp-41" target="pqq-e4tX1zYswBb4EWAp-26" edge="1">
          <mxGeometry width="160" relative="1" as="geometry">
            <mxPoint x="330" y="390" as="sourcePoint" />
            <mxPoint x="490" y="390" as="targetPoint" />
          </mxGeometry>
        </mxCell>
        <mxCell id="geAe2I1A-DyMrMw-oqyO-5" value="" style="endArrow=diamondThin;endFill=0;endSize=24;html=1;strokeWidth=1;fontSize=16;align=left;exitX=1.012;exitY=0.063;exitDx=0;exitDy=0;exitPerimeter=0;entryX=-0.029;entryY=0.074;entryDx=0;entryDy=0;entryPerimeter=0;" parent="2jnJ9HJd9OfUZj2SuI70-1" source="pqq-e4tX1zYswBb4EWAp-2" target="pqq-e4tX1zYswBb4EWAp-31" edge="1">
          <mxGeometry width="160" relative="1" as="geometry">
            <mxPoint x="330" y="390" as="sourcePoint" />
            <mxPoint x="490" y="390" as="targetPoint" />
          </mxGeometry>
        </mxCell>
        <mxCell id="geAe2I1A-DyMrMw-oqyO-6" value="" style="endArrow=diamondThin;endFill=0;endSize=24;html=1;strokeWidth=1;fontSize=16;align=left;entryX=1.024;entryY=0.074;entryDx=0;entryDy=0;entryPerimeter=0;exitX=1.075;exitY=0.2;exitDx=0;exitDy=0;exitPerimeter=0;" parent="2jnJ9HJd9OfUZj2SuI70-1" source="pqq-e4tX1zYswBb4EWAp-91" target="pqq-e4tX1zYswBb4EWAp-31" edge="1">
          <mxGeometry width="160" relative="1" as="geometry">
            <mxPoint x="330" y="390" as="sourcePoint" />
            <mxPoint x="490" y="390" as="targetPoint" />
          </mxGeometry>
        </mxCell>
        <mxCell id="geAe2I1A-DyMrMw-oqyO-7" value="" style="endArrow=open;endFill=1;endSize=12;html=1;strokeWidth=1;fontSize=16;align=left;exitX=0.15;exitY=1.1;exitDx=0;exitDy=0;exitPerimeter=0;entryX=0.453;entryY=1.038;entryDx=0;entryDy=0;entryPerimeter=0;" parent="2jnJ9HJd9OfUZj2SuI70-1" source="pqq-e4tX1zYswBb4EWAp-85" target="pqq-e4tX1zYswBb4EWAp-78" edge="1">
          <mxGeometry width="160" relative="1" as="geometry">
            <mxPoint x="330" y="390" as="sourcePoint" />
            <mxPoint x="410" y="340" as="targetPoint" />
          </mxGeometry>
        </mxCell>
      </root>
    </mxGraphModel>
  </diagram>
</mxfile>
